<svg width="81" height="24" viewBox="0 0 81 24" fill="none" xmlns="http://www.w3.org/2000/svg"><path d="M10.2 1.8H14L23.3 23H18L16 18.5H8L6.1 23H1l9.2-21.2ZM12 7.9l-2.6 6.6h5.2L11.9 8ZM24.9.3h4.5V23h-4.5V.3ZM32.7 8.4h4.5V23h-4.5V8.4Zm-.4-4.6c0-.7.3-1.3.8-1.8s1.1-.8 1.8-.8 1.4.3 1.9.8.7 1.1.7 1.8c0 .8-.2 1.4-.7 1.9-.5.5-1.2.7-1.9.7s-1.3-.2-1.8-.7c-.5-.5-.8-1.1-.8-1.9ZM38.9 8.4h4.8l3.7 10 3.5-10h4.5L49.7 23h-4.8L39 8.4ZM57.1 8.4h4.5V23h-4.5V8.4Zm-.3-4.6a2.5 2.5 0 0 1 2.6-2.6c.7 0 1.3.3 1.8.8s.8 1.1.8 1.8c0 .8-.3 1.4-.8 1.9s-1 .7-1.8.7c-.7 0-1.3-.2-1.9-.7-.5-.5-.7-1.1-.7-1.9ZM64.3 15.7c0-1.1.2-2.2.7-3.1a7.2 7.2 0 0 1 4.3-4 9.3 9.3 0 0 1 6.3 0 7.3 7.3 0 0 1 4.3 4c.4.9.6 2 .6 3.1a7.3 7.3 0 0 1-5 7.1 9.3 9.3 0 0 1-6.3 0 8 8 0 0 1-2.5-1.5 7.5 7.5 0 0 1-2.4-5.6Zm4.5 0c0 1.1.3 2 1 2.7.6.7 1.5 1 2.6 1 1.2 0 2-.3 2.7-1 .6-.7 1-1.6 1-2.7 0-1-.4-2-1-2.7-.6-.6-1.5-1-2.7-1-1.1 0-2 .4-2.6 1-.7.7-1 1.6-1 2.7Z" fill="#01996D"/></svg>