<svg width="108" height="32" viewBox="0 0 108 32" fill="none" xmlns="http://www.w3.org/2000/svg"><path d="M13.2 2.7h5.2L30.7 31h-7l-2.5-6h-11l-2.4 6H1L13.2 2.7Zm2.4 8.2-3.4 8.8H19L15.6 11ZM32.8.8h6V31h-6V.8ZM43.2 11.6h6V31h-6V11.6Zm-.4-6.2c0-1 .3-1.7 1-2.4s1.5-1 2.4-1c1 0 1.8.3 2.5 1s1 1.5 1 2.4c0 1-.3 1.8-1 2.5s-1.5 1-2.5 1-1.7-.3-2.4-1-1-1.5-1-2.5ZM51.5 11.6H58l5 13.2 4.5-13.2h6L66 31h-6.4l-8-19.4ZM75.9 11.6h6V31h-6V11.6Zm-.5-6.2c0-1 .3-1.7 1-2.4s1.5-1 2.5-1 1.7.3 2.4 1 1 1.5 1 2.4c0 1-.3 1.8-1 2.5s-1.5 1-2.4 1c-1 0-1.8-.3-2.5-1s-1-1.5-1-2.5ZM85.4 21.3c0-1.6.3-3 .9-4.2a9.6 9.6 0 0 1 5.7-5.3 12.4 12.4 0 0 1 8.4 0 9.8 9.8 0 0 1 5.8 5.3c.6 1.2.8 2.6.8 4.2a9.7 9.7 0 0 1-6.6 9.5 12.4 12.4 0 0 1-8.4 0c-1.3-.5-2.4-1.2-3.4-2a10 10 0 0 1-3.2-7.5Zm6 0a5 5 0 0 0 1.3 3.5c.8 1 2 1.4 3.5 1.4 1.6 0 2.7-.5 3.6-1.4a5 5 0 0 0 1.2-3.5 5 5 0 0 0-1.2-3.6c-.9-.9-2-1.3-3.6-1.3-1.5 0-2.7.4-3.5 1.3a5 5 0 0 0-1.3 3.6Z" fill="#fff"/></svg>